<svg width="20" height="20" viewBox="0 0 20 20" fill="none" xmlns="http://www.w3.org/2000/svg">
<path d="M6.72134 14.4503L9 16.8905C9.22611 17.1259 9.64018 16.9547 9.64018 16.6338V14.4718L11.4491 14.4717C12.4357 14.4717 13.2373 13.6372 13.2373 12.6102L13.2375 4.86147C13.2375 3.83447 12.4358 3 11.4492 3H1.78827C0.801653 3 0 3.83447 0 4.86147V12.5888C0 13.6158 0.801653 14.4503 1.78827 14.4503L6.72134 14.4503ZM4.11094 7.42909L5.71424 7.30073L6.33093 5.73882C6.45424 5.43927 6.84481 5.43927 6.94763 5.73882L7.56432 7.30073L9.16763 7.42909C9.4759 7.45043 9.59936 7.83566 9.35259 8.04951L8.1192 9.1407L8.50979 10.7668C8.59195 11.0664 8.26317 11.3231 7.99591 11.1519L6.61871 10.2746L5.24151 11.1519C4.97425 11.3231 4.66597 11.0663 4.72763 10.7668L5.11822 9.1407L3.88483 8.04951C3.67922 7.85698 3.80252 7.45056 4.11094 7.42909ZM15.5602 6.10254C15.108 6.10254 14.7381 5.71747 14.7381 5.24675C14.7381 4.77602 15.108 4.39096 15.5602 4.39096H19.1779C19.6301 4.39096 20 4.77602 20 5.24675C20 5.71747 19.6301 6.10254 19.1779 6.10254H15.5602ZM14.7585 8.64877C14.7585 8.17805 15.1285 7.79298 15.5807 7.79298H18.2529C18.7051 7.79298 19.075 8.17805 19.075 8.64877C19.075 9.1195 18.7051 9.50456 18.2529 9.50456H15.5602C15.108 9.50456 14.7585 9.1195 14.7585 8.64877ZM14.7585 12.0508C14.7585 11.5801 15.1285 11.195 15.5807 11.195H17.2046C17.6568 11.195 18.0267 11.5801 18.0267 12.0508C18.0267 12.5215 17.6568 12.9066 17.2046 12.9066H15.5601C15.1079 12.9066 14.7585 12.5215 14.7585 12.0508Z" fill="#EEA956"/>
</svg>
