<svg width="20" height="20" viewBox="0 0 20 20" fill="none" xmlns="http://www.w3.org/2000/svg">
<path d="M13 5C13 2.79066 11.2089 1 9 1C6.79109 1 5 2.79066 5 5C5 7.20934 6.79109 9 9 9C11.2089 9 13 7.20934 13 5Z" fill="#FF6934"/>
<path d="M12 9C11.2357 9.5784 10.0266 10 9 10C7.95345 10 6.7718 9.59874 6 9C1.10197 10.179 0.910523 14.2341 1.0085 17.979C1.0247 18.5984 1.3724 19.0001 2 19.0001L11 19V16.0001C11 14.9814 11.307 14.0001 13 14.0001L16.5 14C16.5 11 14.5 9 12 9Z" fill="#FF6934"/>
<path d="M13 17H19M19 17L17.5 15.5M19 17L17.5 18.5" stroke="#FF6934" stroke-linecap="round" stroke-linejoin="round"/>
</svg>
